<svg width="70" height="73" viewBox="0 0 70 73" fill="none" xmlns="http://www.w3.org/2000/svg">
<g clip-path="url(#clip0_106_106)">
<path fill-rule="evenodd" clip-rule="evenodd" d="M34.454 7.66584C28.5068 9.32776 28.3644 20.2989 34.2661 22.1663C38.6068 23.5399 42.0394 18.6752 40.9531 12.6891C40.6013 10.7511 39.163 8.76585 37.5465 7.98726C36.7804 7.61842 35.2087 7.45486 34.454 7.66584ZM36.1403 10.5892C38.3505 11.642 39.036 15.8955 37.3738 18.245C35.3108 21.1612 32.1631 17.8873 32.9773 13.6721C33.4023 11.4711 34.9089 10.0026 36.1403 10.5892ZM34.916 26.1568C34.4908 26.3611 33.5857 27.2434 26.6 34.2634C21.3552 39.5341 21.3725 39.511 21.8939 40.5886C22.1247 41.0654 34.4011 53.3652 34.8916 53.611C35.9087 54.1206 35.6409 54.3382 42.7112 47.262C49.3976 40.5701 49.448 40.5146 49.448 39.8301C49.448 39.1554 49.2714 38.9606 42.7093 32.3973C35.751 25.4375 35.9992 25.6362 34.916 26.1568ZM36.4123 30.3802C38.3846 32.2727 45.5775 39.5552 45.626 39.7089C45.7407 40.0716 45.4122 40.4314 40.7292 45.0746C35.8264 49.936 35.7096 50.0427 35.3958 49.9474C35.1428 49.8707 25.6164 40.3218 25.5221 40.0505C25.387 39.6619 25.5408 39.4914 30.4336 34.6C36.0298 29.0052 35.4246 29.4324 36.4123 30.3802ZM19.964 54.773C18.7523 54.8609 18.0746 54.9544 17.36 55.133C16.8287 55.2658 16.2239 55.4015 16.016 55.4346C15.8081 55.4679 15.449 55.5701 15.218 55.662C14.987 55.7539 14.609 55.8791 14.378 55.9404C13.4032 56.1995 11.4336 57.3393 10.5402 58.1613C7.39382 61.0571 7.92554 65.4227 11.6459 67.24C12.2944 67.5568 12.4783 67.6069 13.9725 67.8742L14.9948 68.0571L16.2405 67.883C16.9255 67.7871 17.7317 67.6851 18.032 67.6562C18.3323 67.6274 18.8993 67.514 19.292 67.4044C19.6847 67.295 20.2517 67.1614 20.552 67.1078C20.8523 67.0541 21.2681 66.939 21.476 66.8517C21.6839 66.7645 22.1117 66.6348 22.4267 66.5636C22.7419 66.4924 23.0821 66.3893 23.1827 66.3347C23.2835 66.2799 23.6495 66.149 23.996 66.0439C25.4341 65.6071 27.2602 64.932 27.8096 64.6342C28.0358 64.5114 28.2712 64.411 28.3323 64.411C28.3934 64.411 28.6051 64.3364 28.8027 64.2451C29.0003 64.1537 29.6156 63.9039 30.17 63.6898C31.0745 63.3403 31.434 63.1854 32.606 62.6401C33.0319 62.442 33.8872 62.0886 34.538 61.8415C34.8152 61.7364 35.1472 61.608 35.2759 61.5564C35.5359 61.4516 36.2146 61.658 37.604 62.2639C37.9967 62.4353 38.5761 62.6846 38.8915 62.8178C39.2069 62.9512 39.566 63.1169 39.6895 63.1862C39.813 63.2554 40.1219 63.3922 40.376 63.4904C40.6301 63.5884 41.1215 63.7829 41.468 63.9229C41.8145 64.0626 42.3987 64.2884 42.766 64.4245C43.1335 64.5605 43.4792 64.7093 43.5344 64.7552C43.5894 64.8012 43.8937 64.9293 44.2104 65.0398C44.5269 65.1504 45.164 65.3795 45.626 65.5488C46.088 65.718 46.7461 65.9321 47.0884 66.0243C47.431 66.1164 47.8526 66.2643 48.0257 66.3531C48.1989 66.4418 48.5047 66.5392 48.7052 66.5699C48.9058 66.6005 49.2783 66.712 49.533 66.8176C49.7878 66.9234 50.2414 67.0539 50.5411 67.1076C50.8407 67.1614 51.4073 67.2958 51.8 67.4067C52.1927 67.5173 52.7597 67.6318 53.06 67.6611C53.3603 67.6904 54.0361 67.7869 54.5619 67.8754C55.7713 68.0788 56.516 68.0788 57.3299 67.875C57.6842 67.7863 58.1376 67.6876 58.3375 67.6556C61.1723 67.2033 63.3788 63.6051 62.4401 60.9654C61.6698 58.7989 59.1097 56.5367 56.7386 55.9269C56.467 55.8572 56.1084 55.7429 55.9416 55.673C55.7747 55.603 55.353 55.4909 55.0044 55.424C54.6558 55.357 54.123 55.2247 53.8204 55.13C51.9628 54.5485 45.9481 54.5536 43.778 55.1387C43.2698 55.2757 42.6461 55.4411 42.392 55.5062C41.783 55.6626 40.9485 55.9476 40.376 56.1946C40.1219 56.3042 39.8195 56.4182 39.704 56.448C39.5885 56.4777 39.2483 56.6103 38.948 56.7424C35.4345 58.2892 35.6388 58.2435 34.508 57.7358C32.0485 56.6317 29.5484 55.69 28.28 55.3901C27.9335 55.3081 27.3476 55.1629 26.978 55.0672C25.5357 54.6944 22.6944 54.5751 19.964 54.773ZM25.7888 57.8156C26.0586 57.917 26.4744 58.022 26.7128 58.0492C27.7844 58.1712 30.6528 59.1665 31.0333 59.5486C31.4271 59.9436 30.8401 60.324 28.406 61.2508C28.1288 61.3563 27.713 61.5201 27.482 61.6145C27.251 61.709 26.7407 61.9062 26.348 62.0529C25.9553 62.1996 25.445 62.3963 25.214 62.4899C24.983 62.5834 24.5636 62.7276 24.2822 62.81C24.0006 62.8924 23.6499 63.0223 23.5025 63.0988C23.2148 63.248 22.2897 63.5462 21.14 63.8601C20.7473 63.9674 20.2559 64.1191 20.048 64.1975C19.8401 64.2759 19.4243 64.3763 19.124 64.4203C18.8237 64.4646 18.3323 64.6014 18.032 64.7244C17.4988 64.943 17.4419 64.9483 15.596 64.9535L13.706 64.959L13.0243 64.6056C11.2164 63.6679 10.908 62.2778 12.1568 60.6952C12.7589 59.9324 14.5172 58.8937 15.6548 58.629C15.9498 58.5603 16.3848 58.4275 16.621 58.3341C16.8573 58.2406 17.3564 58.1267 17.7302 58.0812C18.1042 58.0355 18.6179 57.9366 18.872 57.8616C19.7292 57.6087 19.9163 57.5962 22.61 57.6137C25.1453 57.6302 25.3259 57.6418 25.7888 57.8156ZM52.136 57.8129C52.4363 57.9132 53.0119 58.0361 53.4149 58.0861C53.8181 58.1358 54.3129 58.2475 54.5145 58.3341C54.7161 58.421 55.0978 58.5371 55.3624 58.5923C55.6273 58.6473 56.0775 58.7974 56.3629 58.9258C56.6485 59.0539 56.9765 59.1974 57.092 59.2449C57.5002 59.412 58.6819 60.3615 59.0307 60.8025C60.1937 62.2734 59.8518 63.6183 58.058 64.6281L57.47 64.959L55.538 64.9554C53.6289 64.9519 53.5997 64.9491 53.0644 64.7228C52.7666 64.5967 52.2988 64.4574 52.0245 64.4131C51.7504 64.3689 51.238 64.2407 50.8861 64.1284C50.1773 63.9022 49.3012 63.6455 48.3795 63.3936C48.046 63.3026 47.6491 63.1557 47.4975 63.0669C47.3461 62.9784 47.0708 62.8789 46.886 62.8461C46.7012 62.8132 46.4091 62.7154 46.2371 62.6286C46.0649 62.5417 45.6113 62.3609 45.2291 62.2268C44.2203 61.8732 43.5361 61.6061 42.728 61.2505C42.3353 61.0779 41.7494 60.8322 41.426 60.7044C39.5942 59.9817 39.4873 59.6398 40.922 59.0916C42.3025 58.5643 43.8139 58.1147 44.4468 58.0435C44.7224 58.0125 45.1209 57.9185 45.3324 57.8348C45.924 57.6009 45.9544 57.599 48.86 57.6152C51.4126 57.6293 51.6255 57.6422 52.136 57.8129ZM24.1478 78.2369C23.311 78.3043 22.6089 78.6786 21.985 79.39C20.6245 80.9412 21.5789 83.0768 23.8484 83.56C24.0913 83.6119 24.4607 83.7405 24.6695 83.8458C24.878 83.9514 25.2108 84.0815 25.4089 84.135C26.3052 84.3772 26.4667 85.4633 25.6298 85.6207C24.8074 85.7757 24.0067 85.6245 22.9712 85.1191C21.7505 84.5233 21.6759 84.5313 21.2668 85.3044C20.942 85.9185 20.9103 86.1207 21.0969 86.3884C21.2738 86.6417 22.2202 87.1446 22.808 87.2974C23.0812 87.3684 23.4697 87.5018 23.6713 87.5935C24.2528 87.8585 25.9526 87.8399 26.4977 87.563C26.7157 87.4523 27.0578 87.3126 27.2577 87.2525C28.5305 86.8706 29.284 84.8837 28.6002 83.7126C28.3495 83.2833 27.5941 82.5372 27.4102 82.5372C27.3436 82.5372 27.0679 82.42 26.7976 82.2769C26.5271 82.1338 26.1027 81.9833 25.8541 81.9424C24.4416 81.7099 23.6409 80.7547 24.4393 80.2545C24.8276 80.0113 26.2407 80.2404 27.1153 80.6881C27.7756 81.0264 28.096 80.8881 28.3961 80.1359C28.7632 79.2155 28.6962 79.0728 27.6634 78.5764C26.8963 78.2078 25.8106 78.1028 24.1478 78.2369ZM2.156 78.2895C1.02851 78.6984 -0.353291 79.7679 -0.718481 80.5138C-1.63408 82.3854 -1.66726 83.3695 -0.869681 85.0127C-0.370091 86.0421 0.286789 86.7414 1.11965 87.1307C1.38929 87.2567 1.79963 87.4508 2.03126 87.5621C2.56823 87.8199 4.36436 87.8627 4.802 87.6283C4.9406 87.5539 5.24405 87.4264 5.4761 87.3446C6.0032 87.1593 6.78692 86.6615 7.01981 86.3645C7.29785 86.0098 7.24451 85.7824 6.76382 85.2721C6.21047 84.6847 6.06263 84.6818 4.98659 85.235C3.02519 86.2436 1.22885 85.125 1.23389 82.8982C1.23893 80.6318 3.17009 79.6256 5.32049 80.769C6.08993 81.1781 6.10526 81.1786 6.52925 80.7941C7.24346 80.1466 7.29869 79.6815 6.72224 79.172C6.50783 78.9826 6.28628 78.8276 6.23 78.8276C6.17372 78.8276 5.90492 78.7046 5.63276 78.5543L5.138 78.2809L3.71 78.2624C2.9246 78.2522 2.2253 78.2645 2.156 78.2895ZM10.8416 78.3564C10.4619 78.5246 10.472 78.3956 10.472 83.0405C10.472 87.1317 10.4791 87.333 10.6324 87.5231L10.7931 87.7221L14.2457 87.7459L17.6983 87.7697L17.9071 87.56C18.0923 87.3743 18.116 87.2789 18.116 86.7235C18.116 85.6593 18.2319 85.7067 15.512 85.6566L13.2289 85.6144L13.0596 85.4045C12.9237 85.2359 12.8977 85.1067 12.9275 84.7469C12.988 84.0136 12.9735 84.0189 15.0603 83.9704L16.8709 83.9283L17.0736 83.6918C17.2445 83.492 17.276 83.3661 17.276 82.8828C17.276 81.9852 17.306 81.998 15.0758 81.947C12.9515 81.8985 12.908 81.8823 12.908 81.1326C12.908 80.204 12.9552 80.1858 15.4469 80.1568C17.2943 80.135 17.3617 80.1283 17.5427 79.9464C17.8159 79.6722 17.8676 78.7863 17.628 78.4892L17.4589 78.2796L14.2806 78.2603C11.7419 78.2449 11.0495 78.2643 10.8416 78.3564ZM32.4817 78.3418C32.065 78.5614 32.0625 78.5884 32.0613 82.9672C32.06 87.3242 32.0781 87.5425 32.4538 87.6861C32.8551 87.8391 34.203 87.7824 34.4238 87.603L34.622 87.442V83.0114C34.622 78.8723 34.6121 78.5709 34.4723 78.4301C34.2778 78.235 32.8082 78.1696 32.4817 78.3418Z" fill="#11C16D"/>
</g>
<defs>
<clipPath id="clip0_106_106">
<rect width="70" height="73" fill="white"/>
</clipPath>
</defs>
</svg>
