<svg width="118" height="31" viewBox="0 0 118 31" fill="none" xmlns="http://www.w3.org/2000/svg">
<g clip-path="url(#clip0_106_102)">
<path fill-rule="evenodd" clip-rule="evenodd" d="M58.1947 -96.4457C49.4225 -93.9924 49.2125 -77.7969 57.9174 -75.0402C64.32 -73.0125 69.3831 -80.1939 67.7808 -89.0304C67.262 -91.8913 65.1405 -94.8219 62.756 -95.9712C61.6261 -96.5157 59.3079 -96.7572 58.1947 -96.4457ZM60.6819 -92.1303C63.9421 -90.5761 64.9531 -84.2971 62.5014 -80.8289C59.4584 -76.524 54.8156 -81.3569 56.0165 -87.5793C56.6434 -90.8285 58.8656 -92.9962 60.6819 -92.1303ZM58.8761 -69.1495C58.2489 -68.848 56.9138 -67.5456 46.61 -57.1826C38.874 -49.402 38.8994 -49.4362 39.6685 -47.8454C40.0089 -47.1416 58.1166 -28.9847 58.8402 -28.6219C60.3403 -27.8696 59.9454 -27.5485 70.374 -37.9942C80.2365 -47.8728 80.3108 -47.9546 80.3108 -48.9652C80.3108 -49.9611 80.0503 -50.2486 70.3712 -59.9374C60.1077 -70.2114 60.4738 -69.918 58.8761 -69.1495ZM61.0831 -62.915C63.9922 -60.1213 74.6018 -49.3709 74.6734 -49.1441C74.8425 -48.6086 74.358 -48.0775 67.4506 -41.2232C60.2189 -34.0469 60.0466 -33.8894 59.5839 -34.0301C59.2106 -34.1433 45.1591 -48.2393 45.0201 -48.6397C44.8209 -49.2135 45.0476 -49.4652 52.2645 -56.6857C60.519 -64.9448 59.6263 -64.3141 61.0831 -62.915ZM36.8219 -26.9066C35.0346 -26.7769 34.0351 -26.6387 32.981 -26.3752C32.1973 -26.1792 31.3053 -25.9788 30.9986 -25.93C30.6919 -25.8808 30.1623 -25.7299 29.8216 -25.5942C29.4808 -25.4586 28.9233 -25.2738 28.5826 -25.1832C27.1447 -24.8008 24.2395 -23.1182 22.9219 -21.9048C18.2809 -17.6301 19.0652 -11.1856 24.5527 -8.50295C25.5092 -8.03532 25.7806 -7.96127 27.9844 -7.56674L29.4923 -7.29668L31.3297 -7.55368C32.3401 -7.69524 33.5293 -7.84583 33.9722 -7.88846C34.4151 -7.93108 35.2515 -8.09848 35.8307 -8.26027C36.4099 -8.42175 37.2463 -8.61901 37.6892 -8.69804C38.1321 -8.77738 38.7454 -8.94726 39.0521 -9.07607C39.3588 -9.20488 39.9897 -9.39622 40.4543 -9.50139C40.9193 -9.60655 41.4211 -9.7587 41.5694 -9.83929C41.7181 -9.92018 42.258 -10.1134 42.7691 -10.2687C44.8903 -10.9133 47.5839 -11.9099 48.3942 -12.3495C48.7278 -12.5309 49.075 -12.679 49.1651 -12.679C49.2553 -12.679 49.5675 -12.7892 49.859 -12.9239C50.1504 -13.0589 51.058 -13.4276 51.8758 -13.7437C53.2098 -14.2596 53.7401 -14.4883 55.4689 -15.2932C56.097 -15.5856 57.3586 -16.1074 58.3186 -16.4721C58.7274 -16.6273 59.2171 -16.8168 59.407 -16.893C59.7905 -17.0477 60.7916 -16.7431 62.8409 -15.8486C63.4201 -15.5956 64.2747 -15.2275 64.74 -15.0309C65.2052 -14.8339 65.7349 -14.5894 65.917 -14.487C66.0992 -14.385 66.5548 -14.183 66.9296 -14.0381C67.3044 -13.8934 68.0292 -13.6062 68.5403 -13.3996C69.0514 -13.1933 69.9131 -12.8601 70.4549 -12.6591C70.9969 -12.4584 71.5068 -12.2388 71.5882 -12.1709C71.6694 -12.1031 72.1182 -11.9139 72.5853 -11.7509C73.0521 -11.5875 73.9919 -11.2494 74.6734 -10.9995C75.3548 -10.7497 76.3256 -10.4335 76.8305 -10.2976C77.3357 -10.1616 77.9576 -9.9432 78.2129 -9.81221C78.4684 -9.68123 78.9194 -9.53748 79.2152 -9.49206C79.511 -9.44695 80.0605 -9.28235 80.4363 -9.12646C80.812 -8.97028 81.481 -8.77768 81.9231 -8.69834C82.3651 -8.619 83.2008 -8.42051 83.78 -8.25685C84.3592 -8.09351 85.1956 -7.92455 85.6385 -7.88131C86.0815 -7.83806 87.0782 -7.69556 87.8538 -7.56489C89.6377 -7.26464 90.7361 -7.26463 91.9367 -7.5655C92.4592 -7.69649 93.128 -7.84211 93.4228 -7.8894C97.6042 -8.5571 100.859 -13.8688 99.4741 -17.7654C98.338 -20.9636 94.5618 -24.303 91.0644 -25.2032C90.6639 -25.3061 90.1348 -25.4748 89.8889 -25.5781C89.6426 -25.6814 89.0207 -25.8469 88.5065 -25.9455C87.9923 -26.0445 87.2065 -26.2399 86.7601 -26.3795C84.0201 -27.238 75.1485 -27.2305 71.9476 -26.3668C71.198 -26.1646 70.278 -25.9203 69.9032 -25.8242C69.0049 -25.5933 67.774 -25.1727 66.9296 -24.808C66.5548 -24.6462 66.1088 -24.4779 65.9384 -24.434C65.768 -24.3902 65.2663 -24.1944 64.8233 -23.9994C59.6409 -21.7159 59.9423 -21.7835 58.2743 -22.533C54.6465 -24.1627 50.9589 -25.5529 49.088 -25.9956C48.5769 -26.1166 47.7127 -26.331 47.1676 -26.4723C45.0402 -27.0227 40.8493 -27.1988 36.8219 -26.9066ZM45.4134 -22.4151C45.8115 -22.2654 46.4248 -22.1105 46.7763 -22.0703C48.357 -21.8902 52.5879 -20.421 53.1491 -19.8569C53.7299 -19.2738 52.8642 -18.7122 49.2739 -17.3442C48.865 -17.1883 48.2517 -16.9465 47.911 -16.8072C47.5702 -16.6678 46.8175 -16.3766 46.2383 -16.16C45.6591 -15.9435 44.9064 -15.6532 44.5657 -15.515C44.2249 -15.3769 43.6064 -15.1641 43.1913 -15.0424C42.7759 -14.9207 42.2586 -14.7291 42.0412 -14.6161C41.6168 -14.3959 40.2524 -13.9556 38.5565 -13.4923C37.9773 -13.334 37.2525 -13.1099 36.9458 -12.9942C36.6391 -12.8784 36.0258 -12.7303 35.5829 -12.6653C35.14 -12.6 34.4151 -12.3981 33.9722 -12.2164C33.1857 -11.8937 33.1018 -11.8859 30.3791 -11.8782L27.5913 -11.8701L26.5859 -12.3918C23.9193 -13.7761 23.4642 -15.828 25.3063 -18.1643C26.1944 -19.2903 28.7879 -20.8236 30.4658 -21.2144C30.901 -21.3158 31.5425 -21.5118 31.891 -21.6497C32.2395 -21.7878 32.9757 -21.9558 33.5271 -22.023C34.0788 -22.0906 34.8364 -22.2365 35.2112 -22.3472C36.4756 -22.7206 36.7516 -22.739 40.7248 -22.7131C44.4644 -22.6889 44.7307 -22.6717 45.4134 -22.4151ZM84.2756 -22.4191C84.7186 -22.271 85.5676 -22.0896 86.162 -22.0159C86.7567 -21.9424 87.4865 -21.7775 87.7838 -21.6497C88.0812 -21.5215 88.6443 -21.35 89.0346 -21.2685C89.4252 -21.1873 90.0893 -20.9658 90.5103 -20.7763C90.9315 -20.5871 91.4154 -20.3753 91.5857 -20.3053C92.1879 -20.0585 93.9308 -18.6569 94.4453 -18.006C96.1607 -15.8345 95.6564 -13.8492 93.0106 -12.3585L92.1433 -11.8701L89.2936 -11.8754C86.4776 -11.8806 86.4346 -11.8847 85.645 -12.2188C85.2058 -12.4049 84.5157 -12.6106 84.1111 -12.6759C83.7069 -12.7412 82.9511 -12.9304 82.432 -13.0962C81.3866 -13.4301 80.0943 -13.8091 78.7348 -14.1809C78.2429 -14.3153 77.6575 -14.5321 77.4338 -14.6631C77.2105 -14.7938 76.8044 -14.9407 76.5319 -14.9892C76.2593 -15.0377 75.8284 -15.1821 75.5747 -15.3103C75.3207 -15.4385 74.6517 -15.7054 74.0879 -15.9033C72.5999 -16.4254 71.5907 -16.8196 70.3988 -17.3445C69.8196 -17.5993 68.9554 -17.9621 68.4784 -18.1506C65.7764 -19.2175 65.6187 -19.7222 67.735 -20.5314C69.7713 -21.3099 72.0005 -21.9736 72.9341 -22.0787C73.3405 -22.1245 73.9284 -22.2632 74.2403 -22.3868C75.1129 -22.7321 75.1578 -22.7349 79.4435 -22.711C83.2085 -22.6901 83.5226 -22.6711 84.2756 -22.4191ZM42.993 7.73054C41.7587 7.8301 40.7232 8.38268 39.8029 9.43276C37.7961 11.7227 39.2039 14.8751 42.5513 15.5886C42.9097 15.6651 43.4546 15.8549 43.7625 16.0105C44.0701 16.1664 44.561 16.3583 44.8531 16.4374C46.1751 16.7949 46.4133 18.3981 45.179 18.6306C43.966 18.8592 42.7849 18.6362 41.2575 17.8901C39.4569 17.0105 39.347 17.0223 38.7436 18.1635C38.2644 19.0702 38.2176 19.3686 38.493 19.7637C38.7538 20.1377 40.1499 20.8801 41.0168 21.1056C41.4198 21.2105 41.9929 21.4074 42.2902 21.5428C43.1479 21.9339 45.655 21.9065 46.4592 21.4977C46.7807 21.3343 47.2853 21.128 47.5801 21.0394C49.4575 20.4756 50.5689 17.5425 49.5604 15.8138C49.1905 15.1801 48.0764 14.0786 47.805 14.0786C47.7068 14.0786 47.3001 13.9056 46.9015 13.6944C46.5025 13.4831 45.8765 13.261 45.5098 13.2006C43.4264 12.8574 42.2453 11.4474 43.423 10.709C43.9957 10.35 46.08 10.6882 47.3701 11.349C48.344 11.8484 48.8167 11.6443 49.2593 10.5339C49.8007 9.17515 49.7019 8.96451 48.1786 8.23179C47.0471 7.68761 45.4457 7.53265 42.993 7.73054ZM10.5551 7.80833C8.89205 8.41193 6.85389 9.99063 6.31524 11.0917C4.96473 13.8546 4.91579 15.3073 6.09222 17.7329C6.82911 19.2525 7.79801 20.2849 9.02648 20.8595C9.4242 21.0456 10.0295 21.3321 10.3711 21.4964C11.1631 21.8769 13.8124 21.9401 14.4579 21.5941C14.6624 21.4843 15.11 21.2961 15.4522 21.1753C16.2297 20.9018 17.3857 20.1669 17.7292 19.7286C18.1393 19.2049 18.0606 18.8692 17.3516 18.1159C16.5354 17.2488 16.3174 17.2444 14.7302 18.0612C11.8372 19.55 9.18755 17.8988 9.19498 14.6116C9.20242 11.266 12.0509 9.78062 15.2227 11.4685C16.3576 12.0724 16.3803 12.0731 17.0056 11.5055C18.0591 10.5497 18.1406 9.86307 17.2903 9.11105C16.974 8.83134 16.6473 8.60265 16.5642 8.60265C16.4812 8.60265 16.0848 8.42095 15.6833 8.19911L14.9535 7.79557L12.8472 7.76819C11.6888 7.75325 10.6573 7.7713 10.5551 7.80833ZM23.3664 7.90696C22.8063 8.15524 22.8212 7.96483 22.8212 14.8216C22.8212 20.8611 22.8317 21.1582 23.0578 21.4389L23.2948 21.7326L28.3874 21.7677L33.48 21.8029L33.7879 21.4933C34.0611 21.2192 34.0961 21.0783 34.0961 20.2584C34.0961 18.6875 34.2671 18.7575 30.2552 18.6834L26.8876 18.6212L26.6379 18.3113C26.4375 18.0624 26.3991 17.8717 26.4431 17.3406C26.5323 16.2581 26.5109 16.2659 29.5889 16.1944L32.2596 16.1321L32.5585 15.783C32.8106 15.4881 32.8571 15.3023 32.8571 14.5889C32.8571 13.2638 32.9014 13.2828 29.6118 13.2075C26.4784 13.1359 26.4143 13.1119 26.4143 12.0052C26.4143 10.6344 26.484 10.6076 30.1592 10.5647C32.884 10.5326 32.9835 10.5227 33.2505 10.2542C33.6535 9.84938 33.7297 8.54168 33.3762 8.10297L33.1269 7.7937L28.4388 7.76508C24.6943 7.74237 23.673 7.77099 23.3664 7.90696ZM55.2855 7.88549C54.6709 8.20969 54.6672 8.24952 54.6654 14.7134C54.6635 21.1452 54.6901 21.4675 55.2443 21.6794C55.8362 21.9053 57.8245 21.8216 58.1501 21.5568L58.4425 21.3191V14.7787C58.4425 8.66862 58.4279 8.22369 58.2216 8.01586C57.9348 7.72775 55.7671 7.63129 55.2855 7.88549Z" fill="#11C16D"/>
<path fill-rule="evenodd" clip-rule="evenodd" d="M65.3765 7.84788C64.8908 8.0495 64.7926 8.30369 64.8444 9.2231C64.9196 10.5613 64.8233 10.5202 68.0447 10.594C71.8822 10.6817 71.8769 10.6705 69.4404 13.5283C68.5691 14.5504 67.5243 15.8061 67.1185 16.3195C66.7131 16.8325 66.0323 17.6561 65.6057 18.1499C64.7369 19.1555 64.6362 19.4038 64.6399 20.5323C64.6443 21.8739 64.2626 21.7948 70.7277 21.7948H76.2332L76.5374 21.4893C76.806 21.2199 76.8416 21.0752 76.8416 20.2585C76.8416 18.7118 76.9416 18.7588 73.4765 18.6791C69.336 18.5839 69.3903 18.6819 71.8955 15.8058C72.2759 15.3693 72.9691 14.5361 73.4359 13.9542C73.9027 13.3724 74.7207 12.4129 75.2538 11.8217C76.6152 10.3121 77.073 8.70381 76.333 8.03083C76.0502 7.77352 65.961 7.6052 65.3765 7.84788ZM82.3322 7.85473C81.797 8.07564 81.7895 8.17769 81.8252 14.8967L81.8595 21.3191L82.1519 21.5571C82.4289 21.7821 82.7049 21.7948 87.3304 21.7948H92.2163L92.5205 21.4893C92.7891 21.2199 92.8247 21.0752 92.8247 20.2585C92.8247 18.6882 92.9932 18.7575 88.9993 18.6835C85.1079 18.6113 85.2048 18.6415 85.2048 17.5002C85.2048 16.2937 85.2687 16.2681 88.4603 16.1944C91.8251 16.1166 91.9574 16.0556 91.9574 14.5787C91.9574 13.2974 91.9233 13.284 88.4613 13.2075C85.1417 13.1341 85.2021 13.1574 85.2095 11.9434C85.2175 10.6307 85.3108 10.594 88.6229 10.594C92.2359 10.594 92.453 10.5037 92.453 9.00344C92.453 7.73494 92.7172 7.7981 87.2672 7.76823C84.7018 7.75423 82.4812 7.79313 82.3322 7.85473ZM98.3147 7.91385C97.7603 8.15622 97.7646 8.09679 97.8061 15.1011C97.8492 22.3841 97.6856 21.7111 99.4267 21.7737C101.489 21.8477 101.496 21.835 101.497 17.8353C101.498 14.0221 101.752 13.7022 103.154 15.7507C103.623 16.4365 105.11 18.4212 106.413 20.0998C107.632 21.6695 107.833 21.7939 109.154 21.7945C110.081 21.7948 110.212 21.7647 110.486 21.4893L110.79 21.1838V14.7825C110.79 7.12169 110.95 7.79374 109.132 7.79374C107.312 7.79374 107.398 7.61702 107.321 11.5246C107.256 14.8291 107.216 15.0516 106.715 14.892C106.436 14.803 105.381 13.5494 104.407 12.1496C104.074 11.6705 103.593 11.0364 103.338 10.7402C103.083 10.4443 102.538 9.70785 102.126 9.10393C101.577 8.29903 101.273 7.96953 100.986 7.86873C100.44 7.67769 98.7914 7.7057 98.3147 7.91385Z" fill="#FCDF65"/>
</g>
<defs>
<clipPath id="clip0_106_102">
<rect width="118" height="31" fill="white"/>
</clipPath>
</defs>
</svg>
